<?xml version="1.0" encoding="utf-8"?>
<!-- Uploaded to: SVG Repo, www.svgrepo.com, Generator: SVG Repo Mixer Tools -->
<svg width="800px" height="800px" viewBox="0 0 1024 1024" class="icon"  version="1.1" xmlns="http://www.w3.org/2000/svg"><path d="M640 128a96 96 0 0 0-96-96 32 32 0 1 0-64 0 96 96 0 0 0-96 96h96v448h64V128h96z" fill="#DAE2E5" /><path d="M1024 608a32 32 0 0 1-32 32H32a32 32 0 1 1 0-64h960a32 32 0 0 1 32 32z" fill="#434854" /><path d="M160 992c12.512 15.488 32 32 64 32h576c31.008 0 54.048-17.728 64-32 0 0 128-160 128-352H32c0 192 128 352 128 352z" fill="#EAEAEA" /><path d="M990.72 672c0.736-10.56 1.28-21.216 1.28-32H32c0 10.784 0.544 21.44 1.28 32h957.44z" fill="" /><path d="M416 544a32 32 0 0 0-32 32h64a32 32 0 0 0-32-32z" fill="#469FCC" /><path d="M608 544a32 32 0 0 0-32 32h64a32 32 0 0 0-32-32z" fill="#EF4D4D" /><path d="M480 128h64v32h-64z" fill="" /><path d="M480 64h64a95.68 95.68 0 0 1 90.112 64H640a96 96 0 0 0-96-96h-64a96 96 0 0 0-96 96h5.888A95.68 95.68 0 0 1 480 64z" fill="#FFFFFF" /><path d="M59.072 798.368C96.608 912.448 160 992 160 992c12.512 15.488 32 32 64 32h160c-137.056 0-256.992-98.688-324.928-225.632zM640 1024h160c31.008 0 54.048-17.728 64-32 0 0 63.392-79.584 100.96-193.664C896.992 925.28 777.056 1024 640 1024z" fill="" /></svg>